<?xml version="1.0" encoding="UTF-8" standalone="no"?>
<!-- Created with Inkscape (http://www.inkscape.org/) -->

<svg
   width="45.477604mm"
   height="59.405342mm"
   viewBox="0 0 45.477604 59.405342"
   version="1.1"
   id="svg1"
   xml:space="preserve"
   xmlns="http://www.w3.org/2000/svg"
   xmlns:svg="http://www.w3.org/2000/svg"><defs
     id="defs1" /><g
     id="layer1"
     transform="translate(-71.368358,-52.391807)"><path
       style="fill:#007bff;fill-opacity:1"
       d="M 90.700257,111.36298 C 90.223653,110.97705 89.945704,109.99423 89.110195,105.74058 88.25638,101.39373 87.382209,97.522531 86.833836,95.65989 86.72161,95.278697 86.918589,95.289871 88.632775,95.761933 89.691505,96.053492 90.692772,96.326388 90.857813,96.368367 91.210823,96.458159 91.49162,97.99246 92.422669,104.91889 92.801696,107.73862 93.046013,110.30782 92.965597,110.62822 92.88518,110.94863 92.513272,111.35025 92.139133,111.52072 91.290312,111.90747 91.385567,111.91791 90.700257,111.36298 Z M 74.254737,107.36387 C 73.434983,106.54412 73.227532,106.14071 73.227532,105.36636 73.227532,103.29383 74.455812,102.04108 76.487861,102.04108 77.602715,102.04108 77.900807,102.16352 78.677948,102.94066 79.541964,103.80468 79.702418,104.30361 79.579883,105.74525 79.451901,107.25095 78.043596,108.38841 76.305258,108.39009 75.468657,108.3909 75.09452,108.20366 74.254737,107.36387 Z M 77.318925,106.02049 C 77.960626,105.31142 77.672582,104.22096 76.784716,103.99812 76.331874,103.88447 75.949571,103.98163 75.59812,104.29969 74.964505,104.8731 74.939548,105.41651 75.517497,106.05514 76.084609,106.68179 76.731719,106.66935 77.318925,106.02049 Z M 104.5542,107.22691 C 104.05943,106.73214 103.65461,106.22431 103.65461,106.09839 103.65461,105.97247 104.24071,105.66129 104.95704,105.40687 105.67338,105.15245 106.55816,104.58932 106.92322,104.15546 107.35549,103.64174 107.73514,103.4235 108.01183,103.52967 108.48033,103.70945 109.21086,104.96314 109.21086,105.58737 109.21086,106.35905 108.57,107.37692 107.84958,107.74946 106.60157,108.39483 105.55638,108.22909 104.5542,107.22691 Z M 100.70801,104.25089 C 100.47061,103.98138 99.831938,102.094 99.288736,100.0567 98.745533,98.019413 98.166184,96.218512 98.001292,96.054704 97.562118,95.618415 90.773601,94.098924 89.274809,94.101432 85.595985,94.107589 84.530464,91.889229 84.492144,84.144172 L 84.472323,80.13789 82.047148,78.099154 C 80.713301,76.977849 79.561618,75.804114 79.487852,75.490853 79.414086,75.177592 79.275589,73.968788 79.180081,72.804622 78.968097,70.220713 78.849355,69.761913 78.392596,69.761913 78.197057,69.761913 77.716366,69.380777 77.324394,68.914944 76.733182,68.21233 76.635581,67.89005 76.751738,67.024034 76.929459,65.699024 77.631309,64.997175 78.956318,64.819454 79.817799,64.703905 80.144895,64.801133 80.827777,65.375741 81.767358,66.166347 82.135342,67.350128 81.696449,68.170207 81.471135,68.59121 81.498978,69.399919 81.811127,71.501027 82.037857,73.027179 82.223364,74.325415 82.223364,74.385996 82.223364,74.695781 86.947285,78.256404 87.515031,78.374553 87.878833,78.45026 88.782266,78.686513 89.522661,78.899558 91.36363,79.429289 91.494962,79.415101 94.730636,78.336928 L 97.581608,77.386943 99.427486,74.267592 C 100.44272,72.551949 101.27336,70.947552 101.27336,70.702266 101.27336,69.405121 102.34084,68.458824 103.81697,68.447411 105.3618,68.435468 106.30045,69.400479 106.30045,71.000644 106.30045,72.255786 105.46877,73.429243 104.52654,73.503537 104.26526,73.524138 103.78273,73.553903 103.45425,73.569682 102.97703,73.592607 102.51764,74.209789 101.16811,76.64108 L 99.479202,79.683788 96.215262,80.955847 C 94.420095,81.655479 92.873323,82.35411 92.777992,82.508359 92.404078,83.113365 91.987459,86.741491 92.159874,87.891239 92.385421,89.395295 92.519528,89.484715 96.907739,91.057002 98.799509,91.73482 100.57591,92.512769 100.8553,92.785778 101.19786,93.12051 101.67695,94.643719 102.32648,97.463181 L 103.28967,101.6442 104.64653,101.78231 C 106.21126,101.94157 106.41039,102.07161 106.18364,102.78604 105.98889,103.39965 103.89462,104.36329 102.27267,104.5856 101.37204,104.70905 101.05112,104.6404 100.70801,104.25089 Z M 112.3938,78.69811 C 111.49606,78.224248 110.53378,76.722369 110.53378,75.795063 110.53378,73.959086 111.90114,72.67233 113.85211,72.67233 115.84991,72.67233 117.16811,74.381076 116.77731,76.464183 116.43259,78.301693 113.99564,79.543614 112.3938,78.69811 Z M 114.7142,76.588163 C 115.14869,76.153668 115.11361,75.186356 114.64938,74.801083 113.69994,74.013113 112.2147,75.143935 112.66709,76.310351 112.92511,76.975618 114.15926,77.143103 114.7142,76.588163 Z M 88.508716,76.970541 C 87.542425,76.371411 86.900657,74.985511 87.122272,73.976507 87.750569,71.11589 91.426636,70.477095 92.632816,73.018932 93.175096,74.161702 93.185726,74.858546 92.675917,75.844408 91.867536,77.407643 90.019252,77.907119 88.508716,76.970541 Z M 72.929294,60.585181 C 71.28948,59.567477 70.853239,57.193958 72.045565,55.776959 74.043282,53.402807 77.725448,54.697972 77.725448,57.7748 77.725448,58.817648 77.589847,59.111853 76.698242,60.003458 75.854312,60.847388 75.488455,61.029407 74.647721,61.023623 74.084898,61.019751 73.311606,60.822452 72.929294,60.585181 Z M 75.555865,58.596497 C 76.089184,58.063178 75.920694,57.105124 75.211907,56.640708 74.599166,56.239225 74.501731,56.239225 73.88899,56.640708 72.717435,57.408341 73.155536,58.913997 74.550448,58.913997 74.928802,58.913997 75.38124,58.771122 75.555865,58.596497 Z M 97.350984,58.61913 C 95.837692,57.960955 95.095019,55.308713 96.026102,53.8877 96.457523,53.229269 97.967314,52.391806 98.722924,52.391806 99.589129,52.391806 100.99912,53.264507 101.40687,54.053009 102.28776,55.756459 101.62633,57.966193 100.03677,58.630357 98.931399,59.092209 98.433918,59.090129 97.350984,58.61913 Z M 99.635687,56.508847 C 99.809541,56.299366 99.913416,55.79335 99.866521,55.384368 99.711024,54.028248 97.532299,54.302859 97.532299,55.678578 97.532299,56.789649 98.941118,57.345752 99.635687,56.508847 Z"
       id="path1" /></g></svg>
