<?xml version="1.0" encoding="UTF-8" standalone="no"?>
<!-- Created with Inkscape (http://www.inkscape.org/) -->

<svg
   width="42.972706mm"
   height="47.826038mm"
   viewBox="0 0 42.972706 47.826038"
   version="1.1"
   id="svg1"
   xml:space="preserve"
   sodipodi:docname="path.svg"
   inkscape:version="1.4.2 (ebf0e940, 2025-05-08)"
   xmlns:inkscape="http://www.inkscape.org/namespaces/inkscape"
   xmlns:sodipodi="http://sodipodi.sourceforge.net/DTD/sodipodi-0.dtd"
   xmlns="http://www.w3.org/2000/svg"
   xmlns:svg="http://www.w3.org/2000/svg"><sodipodi:namedview
     id="namedview1"
     pagecolor="#ffffff"
     bordercolor="#666666"
     borderopacity="1.0"
     inkscape:showpageshadow="2"
     inkscape:pageopacity="0.0"
     inkscape:pagecheckerboard="0"
     inkscape:deskcolor="#d1d1d1"
     inkscape:document-units="mm"
     inkscape:zoom="0.26554572"
     inkscape:cx="80.965341"
     inkscape:cy="90.379915"
     inkscape:window-width="1440"
     inkscape:window-height="819"
     inkscape:window-x="0"
     inkscape:window-y="25"
     inkscape:window-maximized="0"
     inkscape:current-layer="layer1" /><defs
     id="defs1" /><g
     id="layer1"
     transform="translate(-44.868963,-138.97352)"><path
       style="fill:#4095f2;fill-opacity:1;stroke:none"
       d="M 59.002085,165.1 V 165.36458 C 53.720664,165.36458 48.335883,166.13637 46.062201,171.71459 44.426376,175.72789 43.615217,186.02389 49.477085,186.74684 50.164389,186.83161 50.92115,186.82466 51.593751,186.64823 54.805232,185.80586 55.032285,182.65478 55.033335,179.91667 55.033908,178.43365 54.945315,176.48733 56.625736,175.84298 58.36925,175.17444 61.116022,175.68334 62.970834,175.68334 68.67504,175.68334 76.083325,176.92673 81.491667,174.96921 86.624526,173.1114 88.733409,166.66565 86.301532,161.925 85.155026,159.69004 83.302942,158.4376 81.227084,157.1625 86.44101,155.35489 87.843589,150.4888 87.841667,145.52083 87.840424,142.30367 86.531331,139.10181 82.814584,138.97608 80.308552,138.8913 78.016331,140.92801 77.812209,143.40417 77.717156,144.5572 78.291685,146.89405 76.954557,147.47785 75.75321,148.00237 73.787874,147.6375 72.495834,147.6375 68.67504,147.6375 64.193434,146.97126 60.589585,148.45615 54.377827,151.01557 52.458661,161.69612 59.002085,165.1 M 81.760336,141.42346 C 83.799908,140.79586 85.425455,142.21811 85.676005,144.19792 86.04357,147.10229 85.772914,150.62626 83.785939,152.91856 80.440375,156.77821 73.671844,155.83958 69.056251,155.83958 67.5769,155.83958 63.730874,155.13859 63.057401,156.91323 62.186507,159.20806 66.317432,159.01458 67.468751,159.01458 72.344713,159.01458 80.051994,157.43195 83.518304,161.66144 86.717043,165.56443 84.94698,171.57663 80.168751,173.14387 74.757017,174.91889 67.056793,173.56667 61.383335,173.56667 59.603477,173.56667 57.26226,173.17096 55.563519,173.75266 52.20598,174.90237 53.074144,179.06607 52.905033,181.76875 52.808091,183.31808 51.681876,184.7447 50.006251,184.61751 47.389995,184.41891 47.360418,181.91206 47.360418,179.91667 47.360418,175.77326 47.115383,171.50561 51.064787,168.94932 53.567436,167.32945 56.413636,167.48125 59.266668,167.48125 H 71.437501 C 73.086367,167.48125 77.865597,168.29416 78.857461,166.69341 80.181137,164.55717 74.939516,164.83542 74.083334,164.83542 68.629985,164.83542 59.657665,166.78782 57.472971,159.80833 57.129662,158.71155 57.082636,157.50957 57.174701,156.36875 57.832211,148.22101 67.907839,149.75417 73.554168,149.75417 74.979581,149.75417 77.009867,150.11468 78.312582,149.44222 81.518894,147.78714 78.124899,142.54211 81.760336,141.42346"
       id="path3" /></g></svg>
