<?xml version="1.0" encoding="UTF-8" standalone="no"?>
<!-- Created with Inkscape (http://www.inkscape.org/) -->

<svg
   width="135.46645mm"
   height="135.38173mm"
   viewBox="0 0 135.46645 135.38173"
   version="1.1"
   id="svg1"
   xml:space="preserve"
   xmlns="http://www.w3.org/2000/svg"
   xmlns:svg="http://www.w3.org/2000/svg"><defs
     id="defs1" /><g
     id="layer1"
     transform="translate(-87.399004,-142.87804)"><path
       style="fill:#007bff;fill-opacity:1"
       d="M 118.88359,278.02924 C 117.18334,277.3169 116.01213,275.24033 116.39966,273.62519 116.49698,273.21955 121.73912,262.69021 128.04885,250.22665 134.35858,237.76309 139.52109,227.43837 139.52109,227.28281 139.52109,227.08654 135.16724,226.97707 125.29371,226.92508 L 111.06633,226.85017 109.30714,225.9839 C 106.46897,224.5863 104.25687,221.7982 103.54802,218.72519 103.40161,218.09045 103.28326,213.3603 103.27965,207.99861 L 103.27318,198.40746 H 96.697722 C 90.302049,198.40746 90.097686,198.39104 89.223243,197.80688 87.409459,196.59519 87.399,196.52355 87.399,185.31059 87.399,174.24054 87.416814,174.10821 89.070527,172.89398 89.767849,172.38197 90.269091,172.33732 96.707103,172.21371 L 103.59737,172.08142 104.12148,170.67558 C 104.86953,168.66906 107.28596,166.15986 109.41877,165.17492 110.99948,164.44494 111.29852,164.40222 115.70859,164.27621 L 120.3388,164.14392 120.51171,161.35621 C 121.02327,153.10856 126.20943,146.49868 134.36172,143.70406 L 136.47838,142.97846 156.8513,142.90624 C 175.9054,142.83869 177.28382,142.86434 178.14498,143.30251 180.97755,144.74375 180.97755,148.8959 178.14498,150.31903 177.29372,150.74672 175.76622,150.78191 157.90963,150.78519 137.31141,150.78898 137.33625,150.78757 134.75859,152.1032 130.80928,154.11893 128.40859,158.02953 128.40859,162.44705 V 164.26631 L 154.93307,164.33741 181.45755,164.40851 183.04505,165.18681 C 185.08444,166.18666 187.10728,168.21636 188.07055,170.22934 188.70586,171.55695 188.8548,172.27164 188.98034,174.59496 L 189.13046,177.37309 194.47097,177.44466 199.81147,177.51623 208.75316,172.21914 C 216.91096,167.38642 217.80205,166.92205 218.9178,166.92205 220.41422,166.92205 221.7415,167.73052 222.40141,169.04399 222.8323,169.90163 222.86404,171.7216 222.86443,195.58935 222.86488,223.93346 222.96055,222.34314 221.17857,223.61423 220.56022,224.05531 219.98379,224.20297 218.89609,224.19891 217.48096,224.19363 217.19951,224.04971 208.67748,218.97339 L 199.91409,213.75329 H 194.48021 189.04634 L 188.95611,216.46527 C 188.8765,218.85812 188.76705,219.38588 188.02599,220.95015 186.95743,223.20572 185.22144,224.94172 182.96586,226.01028 L 181.19296,226.85017 166.97161,226.92508 C 159.14987,226.96628 152.75026,227.07152 152.75026,227.15895 152.75026,227.24638 157.93633,237.56074 164.27487,250.07974 170.6134,262.59874 175.86619,273.17514 175.94773,273.58286 176.20285,274.85844 175.79487,276.15146 174.83415,277.11218 173.28727,278.65905 170.85011,278.63612 169.36875,277.06076 168.98939,276.65733 164.5295,268.12638 159.45786,258.1031 L 150.23672,239.87895 150.10442,257.83852 149.97213,275.79808 149.38203,276.62536 C 147.7535,278.90844 144.65481,278.78163 142.84473,276.35783 142.30966,275.64134 142.29668,275.28711 142.16693,257.85335 L 142.03463,240.07934 132.77422,258.42732 C 125.37606,273.08554 123.34054,276.90974 122.65222,277.44386 121.68671,278.19307 119.92702,278.4664 118.88359,278.02924 Z M 180.24662,218.35998 181.06067,217.675 V 195.6419 173.60879 L 180.39546,172.94357 C 180.02959,172.5777 179.35986,172.20428 178.90718,172.11374 178.45449,172.02321 163.62908,171.94913 145.96181,171.94913 111.21579,171.94913 112.5728,171.89406 111.6236,173.34271 111.24446,173.92136 111.20879,176.20922 111.27229,195.87737 L 111.34297,217.76799 112.08533,218.40647 112.82769,219.04496 H 146.13013 179.43257 Z M 121.06399,210.57972 C 120.58971,210.29056 119.96508,209.66592 119.67591,209.19165 119.17067,208.36298 119.15012,207.83536 119.14917,195.66932 119.14807,181.6382 119.13514,181.75132 120.86122,180.68455 121.70132,180.16534 122.1446,180.15121 137.59497,180.15121 H 153.46575 L 154.36478,180.7518 C 156.21625,181.98866 156.18897,181.76617 156.18943,195.63346 156.18981,207.23284 156.15675,208.13527 155.69994,208.99492 155.43049,209.50197 154.81757,210.18473 154.33789,210.51215 L 153.46575,211.10746 137.69603,211.10647 C 122.42698,211.10551 121.89892,211.08879 121.06399,210.57972 Z M 148.25234,195.49705 V 187.82413 H 137.66901 127.08568 V 195.49705 203.16996 H 137.66901 148.25234 Z M 167.37013,203.27898 C 166.15284,202.6576 165.44989,201.39416 165.452,199.83144 165.45508,197.55044 166.97448,196.03103 169.25549,196.02796 171.7619,196.02457 173.30305,197.76527 173.05737,200.32211 172.95547,201.38265 172.75114,201.81339 171.98788,202.57664 171.18695,203.37758 170.83159,203.53504 169.63637,203.61862 168.68182,203.68537 167.95199,203.57599 167.37013,203.27898 Z M 167.37013,187.40398 C 166.15284,186.7826 165.44989,185.51916 165.452,183.95644 165.45508,181.67544 166.97448,180.15603 169.25549,180.15296 171.7619,180.14957 173.30305,181.89028 173.05737,184.44712 172.95547,185.50765 172.75114,185.93839 171.98788,186.70164 171.18695,187.50258 170.83159,187.66004 169.63637,187.74362 168.68182,187.81037 167.95199,187.70099 167.37013,187.40398 Z M 214.86469,186.64765 214.79505,177.83691 209.83255,180.78 204.87006,183.72309 204.93776,195.62934 205.00546,207.53559 209.90025,210.45678 214.79505,213.37797 214.86469,204.41819 C 214.90299,199.4903 214.90299,191.49356 214.86469,186.64765 Z M 196.93567,195.62934 V 185.44288 H 192.96692 188.99817 V 195.62934 205.81579 H 192.96692 196.93567 Z M 103.27318,185.1783 V 179.88663 H 99.304427 95.335678 V 185.1783 190.46996 H 99.304427 103.27318 Z"
       id="path1" /></g></svg>
